<svg version="1.1" id="Layer_1" xmlns="http://www.w3.org/2000/svg" xmlns:xlink="http://www.w3.org/1999/xlink" x="0px" y="0px"
	 width="100%" viewBox="0 0 212 210" enable-background="new 0 0 212 210" xml:space="preserve">
<path fill="#8EC5FF" opacity="1.000000" stroke="none" 
	d="
M139.000000,211.000000 
	C92.666672,211.000000 46.833340,211.000000 1.000006,211.000000 
	C1.000004,141.000000 1.000004,71.000015 1.000002,1.000015 
	C71.666656,1.000010 142.333313,1.000010 212.999969,1.000005 
	C212.999985,70.999985 212.999985,140.999969 213.000000,210.999969 
	C188.500000,211.000000 164.000000,211.000000 139.000000,211.000000 
M129.942093,42.144760 
	C128.510468,41.745029 127.081215,41.008511 125.646835,40.998375 
	C113.158173,40.910145 100.665085,40.781872 88.181007,41.039062 
	C83.183182,41.142029 79.794518,44.378109 78.431198,49.057678 
	C77.665611,51.685581 76.491348,52.309052 73.958611,52.421349 
	C60.634552,53.012115 54.450104,59.544735 54.376705,73.003052 
	C54.304958,86.158920 54.360031,99.315483 54.360554,112.471741 
	C54.361053,125.128395 54.219482,137.787170 54.406342,150.441071 
	C54.578850,162.122986 61.719395,169.060440 73.234703,169.074860 
	C95.716881,169.103027 118.199196,169.118683 140.681290,169.067215 
	C152.128342,169.041016 159.436584,162.372925 159.540878,151.015274 
	C159.787033,124.205467 159.755173,97.390991 159.564392,70.580330 
	C159.488556,59.921261 152.732239,53.097977 142.150253,52.547718 
	C138.552673,52.360649 135.985641,52.044567 134.973022,47.787022 
	C134.503143,45.811489 132.123032,44.290302 129.942093,42.144760 
z"/>
<path fill="#1D40BA" opacity="1.000000" stroke="none" 
	d="
M130.275482,42.353951 
	C132.123032,44.290302 134.503143,45.811489 134.973022,47.787022 
	C135.985641,52.044567 138.552673,52.360649 142.150253,52.547718 
	C152.732239,53.097977 159.488556,59.921261 159.564392,70.580330 
	C159.755173,97.390991 159.787033,124.205467 159.540878,151.015274 
	C159.436584,162.372925 152.128342,169.041016 140.681290,169.067215 
	C118.199196,169.118683 95.716881,169.103027 73.234703,169.074860 
	C61.719395,169.060440 54.578850,162.122986 54.406342,150.441071 
	C54.219482,137.787170 54.361053,125.128395 54.360554,112.471741 
	C54.360031,99.315483 54.304958,86.158920 54.376705,73.003052 
	C54.450104,59.544735 60.634552,53.012115 73.958611,52.421349 
	C76.491348,52.309052 77.665611,51.685581 78.431198,49.057678 
	C79.794518,44.378109 83.183182,41.142029 88.181007,41.039062 
	C100.665085,40.781872 113.158173,40.910145 125.646835,40.998375 
	C127.081215,41.008511 128.510468,41.745029 130.275482,42.353951 
M82.906548,73.807381 
	C80.785034,70.776337 78.663521,67.745293 76.241096,64.284332 
	C68.254112,63.632618 66.094612,65.511131 66.087196,74.054413 
	C66.065819,98.703659 66.066971,123.352951 66.087013,148.002213 
	C66.093391,155.847076 67.590431,157.347778 75.428619,157.356583 
	C96.413780,157.380142 117.398987,157.370743 138.384171,157.361938 
	C146.416214,157.358566 147.909851,155.856110 147.914932,147.680405 
	C147.930222,123.031143 147.931473,98.381866 147.914474,73.732613 
	C147.908722,65.396301 145.387222,63.345268 139.049362,64.207664 
	C134.713074,68.717621 131.957504,74.230408 128.565170,74.654938 
	C113.645721,76.522057 98.531815,77.474411 82.906548,73.807381 
M94.672165,52.013763 
	C92.894676,52.013763 91.117188,52.013763 89.378250,52.013763 
	C89.378250,56.335430 89.378250,60.037151 89.378250,64.077530 
	C95.337730,64.077530 100.958191,64.077530 106.578651,64.077530 
	C112.328384,64.077530 118.078117,64.077530 123.881882,64.077530 
	C123.881882,59.691925 123.881882,56.027607 123.881882,52.013737 
	C114.160004,52.013737 104.894592,52.013737 94.672165,52.013763 
z"/>
<path fill="#8DC4FE" opacity="1.000000" stroke="none" 
	d="
M83.240997,74.003258 
	C98.531815,77.474411 113.645721,76.522057 128.565170,74.654938 
	C131.957504,74.230408 134.713074,68.717621 139.049362,64.207664 
	C145.387222,63.345268 147.908722,65.396301 147.914474,73.732613 
	C147.931473,98.381866 147.930222,123.031143 147.914932,147.680405 
	C147.909851,155.856110 146.416214,157.358566 138.384171,157.361938 
	C117.398987,157.370743 96.413780,157.380142 75.428619,157.356583 
	C67.590431,157.347778 66.093391,155.847076 66.087013,148.002213 
	C66.066971,123.352951 66.065819,98.703659 66.087196,74.054413 
	C66.094612,65.511131 68.254112,63.632618 76.241096,64.284332 
	C78.663521,67.745293 80.785034,70.776337 83.240997,74.003258 
M103.133751,132.649933 
	C104.677475,133.133820 106.213058,134.002838 107.766319,134.035675 
	C114.915016,134.186752 122.068794,134.078873 129.220459,134.116241 
	C133.073318,134.136368 135.877197,132.708313 136.005463,128.540222 
	C136.142960,124.072052 133.153015,122.447411 129.178665,122.397476 
	C122.194244,122.309731 115.204369,122.231758 108.223503,122.411438 
	C101.904778,122.574074 99.828972,126.297920 103.133751,132.649933 
M101.761993,101.651184 
	C103.823441,102.770546 105.836983,104.735031 107.955078,104.855110 
	C115.087341,105.259460 122.256821,105.015930 129.412033,105.003632 
	C133.296234,104.996948 135.964676,103.338516 136.002380,99.200325 
	C136.040390,95.033600 133.248138,93.316376 129.477478,93.251190 
	C122.324402,93.127541 115.165077,93.092651 108.013443,93.251022 
	C102.975204,93.362595 101.243492,95.574486 101.761993,101.651184 
M89.443581,97.957169 
	C88.164413,94.217979 85.669312,92.421616 81.773186,93.762978 
	C78.396736,94.925430 76.914070,97.867928 78.346916,100.916374 
	C79.202843,102.737396 81.895004,104.597191 83.909904,104.776703 
	C87.661903,105.110977 89.420349,102.330559 89.443581,97.957169 
M87.542213,123.948303 
	C82.488426,121.614647 78.194641,123.027901 78.170189,127.440140 
	C78.158859,129.483917 79.663368,132.362335 81.358437,133.339218 
	C82.829010,134.186707 86.028282,133.548386 87.591217,132.389893 
	C90.385170,130.318954 90.124214,127.254219 87.542213,123.948303 
z"/>
<path fill="#8EC5FF" opacity="1.000000" stroke="none" 
	d="
M95.150681,52.013748 
	C104.894592,52.013737 114.160004,52.013737 123.881882,52.013737 
	C123.881882,56.027607 123.881882,59.691925 123.881882,64.077530 
	C118.078117,64.077530 112.328384,64.077530 106.578651,64.077530 
	C100.958191,64.077530 95.337730,64.077530 89.378250,64.077530 
	C89.378250,60.037151 89.378250,56.335430 89.378250,52.013763 
	C91.117188,52.013763 92.894676,52.013763 95.150681,52.013748 
z"/>
<path fill="#1E41BB" opacity="1.000000" stroke="none" 
	d="
M102.855133,132.355499 
	C99.828972,126.297920 101.904778,122.574074 108.223503,122.411438 
	C115.204369,122.231758 122.194244,122.309731 129.178665,122.397476 
	C133.153015,122.447411 136.142960,124.072052 136.005463,128.540222 
	C135.877197,132.708313 133.073318,134.136368 129.220459,134.116241 
	C122.068794,134.078873 114.915016,134.186752 107.766319,134.035675 
	C106.213058,134.002838 104.677475,133.133820 102.855133,132.355499 
z"/>
<path fill="#1D41BA" opacity="1.000000" stroke="none" 
	d="
M101.599457,101.299606 
	C101.243492,95.574486 102.975204,93.362595 108.013443,93.251022 
	C115.165077,93.092651 122.324402,93.127541 129.477478,93.251190 
	C133.248138,93.316376 136.040390,95.033600 136.002380,99.200325 
	C135.964676,103.338516 133.296234,104.996948 129.412033,105.003632 
	C122.256821,105.015930 115.087341,105.259460 107.955078,104.855110 
	C105.836983,104.735031 103.823441,102.770546 101.599457,101.299606 
z"/>
<path fill="#1F43BC" opacity="1.000000" stroke="none" 
	d="
M89.521263,98.312546 
	C89.420349,102.330559 87.661903,105.110977 83.909904,104.776703 
	C81.895004,104.597191 79.202843,102.737396 78.346916,100.916374 
	C76.914070,97.867928 78.396736,94.925430 81.773186,93.762978 
	C85.669312,92.421616 88.164413,94.217979 89.521263,98.312546 
z"/>
<path fill="#1D41BA" opacity="1.000000" stroke="none" 
	d="
M87.801849,124.207436 
	C90.124214,127.254219 90.385170,130.318954 87.591217,132.389893 
	C86.028282,133.548386 82.829010,134.186707 81.358437,133.339218 
	C79.663368,132.362335 78.158859,129.483917 78.170189,127.440140 
	C78.194641,123.027901 82.488426,121.614647 87.801849,124.207436 
z"/>
</svg>